<mxfile host="app.diagrams.net" agent="Mozilla/5.0 (Windows NT 10.0; Win64; x64) AppleWebKit/537.36 (KHTML, like Gecko) Chrome/132.0.0.0 Safari/537.36" version="26.0.14">
  <diagram name="Página-1" id="KaU8D-AHWuBQwUsj53Rt">
    <mxGraphModel dx="1434" dy="780" grid="1" gridSize="10" guides="1" tooltips="1" connect="1" arrows="1" fold="1" page="1" pageScale="1" pageWidth="827" pageHeight="1169" math="0" shadow="0">
      <root>
        <mxCell id="0" />
        <mxCell id="1" parent="0" />
        <mxCell id="xiXLBAjB5wG0DL4UK6Um-1" value="" style="rounded=1;whiteSpace=wrap;html=1;" vertex="1" parent="1">
          <mxGeometry x="199" y="50" width="370" height="620" as="geometry" />
        </mxCell>
        <mxCell id="xiXLBAjB5wG0DL4UK6Um-2" value="Atendimento" style="text;html=1;align=center;verticalAlign=middle;resizable=0;points=[];autosize=1;strokeColor=none;fillColor=none;" vertex="1" parent="1">
          <mxGeometry x="339" y="70" width="90" height="30" as="geometry" />
        </mxCell>
        <mxCell id="xiXLBAjB5wG0DL4UK6Um-3" value="&lt;font style=&quot;font-size: 18px;&quot;&gt;Cadastrar&lt;/font&gt;&lt;div&gt;&lt;font size=&quot;3&quot;&gt;Pedido&lt;/font&gt;&lt;/div&gt;" style="ellipse;whiteSpace=wrap;html=1;" vertex="1" parent="1">
          <mxGeometry x="324" y="130" width="120" height="80" as="geometry" />
        </mxCell>
        <mxCell id="xiXLBAjB5wG0DL4UK6Um-4" value="&lt;font style=&quot;font-size: 18px;&quot;&gt;Preparar&lt;/font&gt;&lt;div&gt;&lt;font size=&quot;3&quot;&gt;Pedido&lt;/font&gt;&lt;/div&gt;" style="ellipse;whiteSpace=wrap;html=1;" vertex="1" parent="1">
          <mxGeometry x="324" y="250" width="120" height="80" as="geometry" />
        </mxCell>
        <mxCell id="xiXLBAjB5wG0DL4UK6Um-5" value="&lt;font style=&quot;font-size: 18px;&quot;&gt;Conferir&lt;/font&gt;&lt;div&gt;&lt;font size=&quot;3&quot;&gt;Pedido&lt;/font&gt;&lt;/div&gt;" style="ellipse;whiteSpace=wrap;html=1;" vertex="1" parent="1">
          <mxGeometry x="324" y="370" width="120" height="80" as="geometry" />
        </mxCell>
        <mxCell id="xiXLBAjB5wG0DL4UK6Um-6" value="&lt;font style=&quot;font-size: 18px;&quot;&gt;Entregar&lt;/font&gt;&lt;div&gt;&lt;font size=&quot;3&quot;&gt;Pedido&lt;/font&gt;&lt;/div&gt;" style="ellipse;whiteSpace=wrap;html=1;" vertex="1" parent="1">
          <mxGeometry x="324" y="490" width="120" height="80" as="geometry" />
        </mxCell>
        <mxCell id="xiXLBAjB5wG0DL4UK6Um-7" value="Atendente" style="shape=umlActor;verticalLabelPosition=bottom;verticalAlign=top;html=1;outlineConnect=0;" vertex="1" parent="1">
          <mxGeometry x="599" y="110" width="70" height="110" as="geometry" />
        </mxCell>
        <mxCell id="xiXLBAjB5wG0DL4UK6Um-9" value="" style="curved=1;endArrow=classic;html=1;rounded=0;entryX=1;entryY=0.5;entryDx=0;entryDy=0;exitX=0.5;exitY=0.5;exitDx=0;exitDy=0;exitPerimeter=0;" edge="1" parent="1" source="xiXLBAjB5wG0DL4UK6Um-7" target="xiXLBAjB5wG0DL4UK6Um-3">
          <mxGeometry width="50" height="50" relative="1" as="geometry">
            <mxPoint x="459" y="433.1" as="sourcePoint" />
            <mxPoint x="529" y="169.9965517241379" as="targetPoint" />
            <Array as="points">
              <mxPoint x="609" y="170" />
              <mxPoint x="589" y="180" />
              <mxPoint x="569" y="160" />
              <mxPoint x="529" y="140" />
              <mxPoint x="489" y="203.1" />
            </Array>
          </mxGeometry>
        </mxCell>
        <mxCell id="xiXLBAjB5wG0DL4UK6Um-11" value="Cozinheiro" style="shape=umlActor;verticalLabelPosition=bottom;verticalAlign=top;html=1;outlineConnect=0;" vertex="1" parent="1">
          <mxGeometry x="29" y="220" width="60" height="90" as="geometry" />
        </mxCell>
        <mxCell id="xiXLBAjB5wG0DL4UK6Um-13" value="" style="curved=1;endArrow=classic;html=1;rounded=0;exitX=0.5;exitY=0.5;exitDx=0;exitDy=0;exitPerimeter=0;" edge="1" parent="1" source="xiXLBAjB5wG0DL4UK6Um-11" target="xiXLBAjB5wG0DL4UK6Um-4">
          <mxGeometry width="50" height="50" relative="1" as="geometry">
            <mxPoint x="59" y="280" as="sourcePoint" />
            <mxPoint x="109" y="230" as="targetPoint" />
            <Array as="points">
              <mxPoint x="109" y="280" />
              <mxPoint x="139" y="250" />
              <mxPoint x="199" y="230" />
            </Array>
          </mxGeometry>
        </mxCell>
        <mxCell id="xiXLBAjB5wG0DL4UK6Um-14" value="" style="curved=1;endArrow=classic;html=1;rounded=0;entryX=1;entryY=0.5;entryDx=0;entryDy=0;exitX=0.5;exitY=0.5;exitDx=0;exitDy=0;exitPerimeter=0;" edge="1" parent="1" source="xiXLBAjB5wG0DL4UK6Um-7" target="xiXLBAjB5wG0DL4UK6Um-5">
          <mxGeometry width="50" height="50" relative="1" as="geometry">
            <mxPoint x="219" y="450" as="sourcePoint" />
            <mxPoint x="269" y="400" as="targetPoint" />
            <Array as="points">
              <mxPoint x="469" y="240" />
              <mxPoint x="539" y="320" />
            </Array>
          </mxGeometry>
        </mxCell>
        <mxCell id="xiXLBAjB5wG0DL4UK6Um-15" value="" style="curved=1;endArrow=classic;html=1;rounded=0;entryX=1;entryY=0.5;entryDx=0;entryDy=0;exitX=0.5;exitY=0.5;exitDx=0;exitDy=0;exitPerimeter=0;" edge="1" parent="1" source="xiXLBAjB5wG0DL4UK6Um-7" target="xiXLBAjB5wG0DL4UK6Um-6">
          <mxGeometry width="50" height="50" relative="1" as="geometry">
            <mxPoint x="629" y="170" as="sourcePoint" />
            <mxPoint x="619" y="280" as="targetPoint" />
            <Array as="points">
              <mxPoint x="599" y="210" />
              <mxPoint x="569" y="260" />
              <mxPoint x="619" y="330" />
            </Array>
          </mxGeometry>
        </mxCell>
        <mxCell id="xiXLBAjB5wG0DL4UK6Um-17" value="Cliente" style="shape=umlActor;verticalLabelPosition=bottom;verticalAlign=top;html=1;outlineConnect=0;" vertex="1" parent="1">
          <mxGeometry x="729" y="110" width="70" height="110" as="geometry" />
        </mxCell>
        <mxCell id="xiXLBAjB5wG0DL4UK6Um-21" value="" style="endArrow=classic;startArrow=classic;html=1;rounded=0;entryX=0.5;entryY=0.5;entryDx=0;entryDy=0;entryPerimeter=0;exitX=0.5;exitY=0.5;exitDx=0;exitDy=0;exitPerimeter=0;" edge="1" parent="1" source="xiXLBAjB5wG0DL4UK6Um-7" target="xiXLBAjB5wG0DL4UK6Um-17">
          <mxGeometry width="50" height="50" relative="1" as="geometry">
            <mxPoint x="689" y="220" as="sourcePoint" />
            <mxPoint x="739" y="170" as="targetPoint" />
          </mxGeometry>
        </mxCell>
        <mxCell id="xiXLBAjB5wG0DL4UK6Um-22" value="info" style="edgeLabel;html=1;align=center;verticalAlign=middle;resizable=0;points=[];" vertex="1" connectable="0" parent="xiXLBAjB5wG0DL4UK6Um-21">
          <mxGeometry x="0.0641" y="-2" relative="1" as="geometry">
            <mxPoint as="offset" />
          </mxGeometry>
        </mxCell>
        <mxCell id="xiXLBAjB5wG0DL4UK6Um-23" value="" style="rounded=1;whiteSpace=wrap;html=1;" vertex="1" parent="1">
          <mxGeometry x="1190" y="20" width="370" height="680" as="geometry" />
        </mxCell>
        <mxCell id="xiXLBAjB5wG0DL4UK6Um-24" value="lava jata" style="text;html=1;align=center;verticalAlign=middle;resizable=0;points=[];autosize=1;strokeColor=none;fillColor=none;" vertex="1" parent="1">
          <mxGeometry x="1340" y="40" width="70" height="30" as="geometry" />
        </mxCell>
        <mxCell id="xiXLBAjB5wG0DL4UK6Um-25" value="&lt;span style=&quot;font-size: 18px;&quot;&gt;Escolher Serviço&lt;/span&gt;" style="ellipse;whiteSpace=wrap;html=1;" vertex="1" parent="1">
          <mxGeometry x="1315" y="100" width="120" height="80" as="geometry" />
        </mxCell>
        <mxCell id="xiXLBAjB5wG0DL4UK6Um-26" value="&lt;span style=&quot;font-size: 18px;&quot;&gt;Registrar Serviço&lt;/span&gt;" style="ellipse;whiteSpace=wrap;html=1;" vertex="1" parent="1">
          <mxGeometry x="1315" y="220" width="120" height="80" as="geometry" />
        </mxCell>
        <mxCell id="xiXLBAjB5wG0DL4UK6Um-27" value="&lt;span style=&quot;font-size: 18px;&quot;&gt;Realizar Serviço&lt;/span&gt;" style="ellipse;whiteSpace=wrap;html=1;" vertex="1" parent="1">
          <mxGeometry x="1315" y="340" width="120" height="80" as="geometry" />
        </mxCell>
        <mxCell id="xiXLBAjB5wG0DL4UK6Um-28" value="&lt;span style=&quot;font-size: 18px;&quot;&gt;Pagar Serviço&lt;/span&gt;" style="ellipse;whiteSpace=wrap;html=1;" vertex="1" parent="1">
          <mxGeometry x="1315" y="460" width="120" height="80" as="geometry" />
        </mxCell>
        <mxCell id="xiXLBAjB5wG0DL4UK6Um-29" value="&lt;span style=&quot;font-size: 18px;&quot;&gt;Entregar veículo&lt;/span&gt;" style="ellipse;whiteSpace=wrap;html=1;" vertex="1" parent="1">
          <mxGeometry x="1315" y="584.5" width="120" height="80" as="geometry" />
        </mxCell>
        <mxCell id="xiXLBAjB5wG0DL4UK6Um-35" style="edgeStyle=orthogonalEdgeStyle;rounded=0;orthogonalLoop=1;jettySize=auto;html=1;exitX=0.5;exitY=0.5;exitDx=0;exitDy=0;exitPerimeter=0;entryX=0;entryY=0.5;entryDx=0;entryDy=0;" edge="1" parent="1" source="xiXLBAjB5wG0DL4UK6Um-30" target="xiXLBAjB5wG0DL4UK6Um-25">
          <mxGeometry relative="1" as="geometry" />
        </mxCell>
        <mxCell id="xiXLBAjB5wG0DL4UK6Um-40" style="edgeStyle=orthogonalEdgeStyle;rounded=0;orthogonalLoop=1;jettySize=auto;html=1;exitX=0.5;exitY=0.5;exitDx=0;exitDy=0;exitPerimeter=0;entryX=0;entryY=0.5;entryDx=0;entryDy=0;" edge="1" parent="1" source="xiXLBAjB5wG0DL4UK6Um-30" target="xiXLBAjB5wG0DL4UK6Um-29">
          <mxGeometry relative="1" as="geometry" />
        </mxCell>
        <mxCell id="xiXLBAjB5wG0DL4UK6Um-30" value="Cliente" style="shape=umlActor;verticalLabelPosition=bottom;verticalAlign=top;html=1;outlineConnect=0;" vertex="1" parent="1">
          <mxGeometry x="1010" y="475" width="70" height="110" as="geometry" />
        </mxCell>
        <mxCell id="xiXLBAjB5wG0DL4UK6Um-36" style="edgeStyle=orthogonalEdgeStyle;rounded=0;orthogonalLoop=1;jettySize=auto;html=1;exitX=0.5;exitY=0.5;exitDx=0;exitDy=0;exitPerimeter=0;" edge="1" parent="1" source="xiXLBAjB5wG0DL4UK6Um-31" target="xiXLBAjB5wG0DL4UK6Um-26">
          <mxGeometry relative="1" as="geometry">
            <Array as="points">
              <mxPoint x="1130" y="180" />
              <mxPoint x="1130" y="260" />
            </Array>
          </mxGeometry>
        </mxCell>
        <mxCell id="xiXLBAjB5wG0DL4UK6Um-37" style="edgeStyle=orthogonalEdgeStyle;rounded=0;orthogonalLoop=1;jettySize=auto;html=1;exitX=0.5;exitY=0.5;exitDx=0;exitDy=0;exitPerimeter=0;entryX=0;entryY=0.5;entryDx=0;entryDy=0;" edge="1" parent="1" source="xiXLBAjB5wG0DL4UK6Um-31" target="xiXLBAjB5wG0DL4UK6Um-28">
          <mxGeometry relative="1" as="geometry">
            <Array as="points">
              <mxPoint x="1130" y="180" />
              <mxPoint x="1130" y="500" />
            </Array>
          </mxGeometry>
        </mxCell>
        <mxCell id="xiXLBAjB5wG0DL4UK6Um-31" value="Atendente&lt;span style=&quot;color: rgba(0, 0, 0, 0); font-family: monospace; font-size: 0px; text-align: start;&quot;&gt;%3CmxGraphModel%3E%3Croot%3E%3CmxCell%20id%3D%220%22%2F%3E%3CmxCell%20id%3D%221%22%20parent%3D%220%22%2F%3E%3CmxCell%20id%3D%222%22%20value%3D%22Cliente%22%20style%3D%22shape%3DumlActor%3BverticalLabelPosition%3Dbottom%3BverticalAlign%3Dtop%3Bhtml%3D1%3BoutlineConnect%3D0%3B%22%20vertex%3D%221%22%20parent%3D%221%22%3E%3CmxGeometry%20x%3D%221010%22%20y%3D%22450%22%20width%3D%2270%22%20height%3D%22110%22%20as%3D%22geometry%22%2F%3E%3C%2FmxCell%3E%3C%2Froot%3E%3C%2FmxGraphModel%3E&lt;/span&gt;&lt;span style=&quot;color: rgba(0, 0, 0, 0); font-family: monospace; font-size: 0px; text-align: start;&quot;&gt;%3CmxGraphModel%3E%3Croot%3E%3CmxCell%20id%3D%220%22%2F%3E%3CmxCell%20id%3D%221%22%20parent%3D%220%22%2F%3E%3CmxCell%20id%3D%222%22%20value%3D%22Cliente%22%20style%3D%22shape%3DumlActor%3BverticalLabelPosition%3Dbottom%3BverticalAlign%3Dtop%3Bhtml%3D1%3BoutlineConnect%3D0%3B%22%20vertex%3D%221%22%20parent%3D%221%22%3E%3CmxGeometry%20x%3D%221010%22%20y%3D%22450%22%20width%3D%2270%22%20height%3D%22110%22%20as%3D%22geometry%22%2F%3E%3C%2FmxCell%3E%3C%2Froot%3E%3C%2FmxGraphModel%3E&lt;/span&gt;" style="shape=umlActor;verticalLabelPosition=bottom;verticalAlign=top;html=1;outlineConnect=0;" vertex="1" parent="1">
          <mxGeometry x="970" y="125" width="70" height="110" as="geometry" />
        </mxCell>
        <mxCell id="xiXLBAjB5wG0DL4UK6Um-38" style="edgeStyle=orthogonalEdgeStyle;rounded=0;orthogonalLoop=1;jettySize=auto;html=1;exitX=0.5;exitY=0.5;exitDx=0;exitDy=0;exitPerimeter=0;" edge="1" parent="1" source="xiXLBAjB5wG0DL4UK6Um-32" target="xiXLBAjB5wG0DL4UK6Um-27">
          <mxGeometry relative="1" as="geometry">
            <Array as="points">
              <mxPoint x="1610" y="290" />
              <mxPoint x="1610" y="380" />
            </Array>
          </mxGeometry>
        </mxCell>
        <mxCell id="xiXLBAjB5wG0DL4UK6Um-39" style="edgeStyle=orthogonalEdgeStyle;rounded=0;orthogonalLoop=1;jettySize=auto;html=1;exitX=0.5;exitY=0.5;exitDx=0;exitDy=0;exitPerimeter=0;entryX=1;entryY=0.5;entryDx=0;entryDy=0;" edge="1" parent="1" source="xiXLBAjB5wG0DL4UK6Um-32" target="xiXLBAjB5wG0DL4UK6Um-29">
          <mxGeometry relative="1" as="geometry">
            <Array as="points">
              <mxPoint x="1610" y="290" />
              <mxPoint x="1610" y="624" />
            </Array>
          </mxGeometry>
        </mxCell>
        <mxCell id="xiXLBAjB5wG0DL4UK6Um-32" value="Lavador" style="shape=umlActor;verticalLabelPosition=bottom;verticalAlign=top;html=1;outlineConnect=0;" vertex="1" parent="1">
          <mxGeometry x="1630" y="235" width="70" height="110" as="geometry" />
        </mxCell>
        <mxCell id="xiXLBAjB5wG0DL4UK6Um-41" value="" style="endArrow=classic;startArrow=classic;html=1;rounded=0;" edge="1" parent="1" target="xiXLBAjB5wG0DL4UK6Um-31">
          <mxGeometry width="50" height="50" relative="1" as="geometry">
            <mxPoint x="1040" y="470" as="sourcePoint" />
            <mxPoint x="1080" y="420" as="targetPoint" />
          </mxGeometry>
        </mxCell>
        <mxCell id="xiXLBAjB5wG0DL4UK6Um-42" value="Info/Pagamento" style="edgeLabel;html=1;align=center;verticalAlign=middle;resizable=0;points=[];" vertex="1" connectable="0" parent="xiXLBAjB5wG0DL4UK6Um-41">
          <mxGeometry x="0.0754" y="3" relative="1" as="geometry">
            <mxPoint as="offset" />
          </mxGeometry>
        </mxCell>
      </root>
    </mxGraphModel>
  </diagram>
</mxfile>
